<?xml version="1.0" standalone="no"?>
<!DOCTYPE svg PUBLIC "-//W3C//DTD SVG 20010904//EN"
 "http://www.w3.org/TR/2001/REC-SVG-20010904/DTD/svg10.dtd">
<svg version="1.0" xmlns="http://www.w3.org/2000/svg"
 width="512.000000pt" height="512.000000pt" viewBox="0 0 512.000000 512.000000"
 preserveAspectRatio="xMidYMid meet">
<metadata>
Created by potrace 1.14, written by Peter Selinger 2001-2017
</metadata>
<g transform="translate(0.000000,512.000000) scale(0.100000,-0.100000)"
fill="#000000" stroke="none">
<path d="M2497 5064 c-1 -1 -47 -4 -102 -8 -55 -3 -109 -8 -120 -10 -11 -2
-42 -7 -70 -10 -279 -37 -664 -186 -910 -351 -90 -61 -119 -82 -205 -150 -69
-54 -303 -301 -366 -385 -375 -505 -527 -1116 -428 -1725 61 -377 211 -721
452 -1035 82 -107 292 -317 397 -397 311 -236 646 -385 1010 -449 71 -12 83
-18 114 -51 19 -21 85 -92 146 -158 62 -66 136 -144 163 -174 27 -29 51 -49
53 -43 2 6 40 48 84 94 44 46 135 143 203 215 121 129 125 132 180 143 98 21
315 96 427 149 59 28 109 51 111 51 8 0 194 116 254 158 510 359 869 942 945
1537 3 28 8 61 11 75 3 14 7 104 8 200 5 229 -10 374 -60 580 -20 85 -84 282
-95 295 -5 5 -9 16 -9 25 0 29 -137 288 -210 396 -140 209 -308 390 -501 540
-183 143 -414 273 -614 343 -49 18 -101 36 -115 41 -29 11 -143 40 -180 46
-14 3 -41 9 -60 14 -31 7 -89 17 -155 26 -63 8 -352 23 -358 18z"/>
</g>
</svg>
